# xmcd
#
# Track frame offsets:
#	182
#	16182
#	31062
#	45620
#	61732
#	78507
#	97957
#	115422
#	129945
#	145820
#	162857
#	178357
#	198532
#	213307
#	231737
#	247732
#	265582
#	282982
#	302615
#	319982
#
# Disc length: 4476 seconds
#
# Revision: 0
# Processed by: cddbd v1.5.2PL0 Copyright (c) Steve Scherf et al.
# Submitted via: audiograbber 1.82.01
#
DISCID=13117a14
DTITLE= .
DYEAR=1900
DGENRE=Pop
TTITLE0=Haiducii - .
TTITLE1=FRANKEE F.U - Rught back
TTITLE2=.
TTITLE3=.
TTITLE4=.
TTITLE5=KYLIE MINOGUE - Red blooded woman
TTITLE6=SUGABABES - In the middle
TTITLE7=.
TTITLE8=SEAN PAUL feat. SASHA - Im still in love with you
TTITLE9=MOUSSE - Is it 'cos i'm cool?
TTITLE10=SIMPLY RED - Sunrise
TTITLE11=c - c
TTITLE12=R. KELLY - Fiesta
TTITLE13=FUGEES - Fu-gee-la
TTITLE14=3T - Stuck on ou
TTITLE15=SARAH CONNOR feat. TQ - Let's get back to bed-boy
TTITLE16=MUSTAFA SANDAL - Araba
TTITLE17=STARDUST - Music sounds better with you
TTITLE18=.
TTITLE19=.
EXTD=
EXTT0=
EXTT1=
EXTT2=
EXTT3=
EXTT4=
EXTT5=
EXTT6=
EXTT7=
EXTT8=
EXTT9=
EXTT10=
EXTT11=
EXTT12=
EXTT13=
EXTT14=
EXTT15=
EXTT16=
EXTT17=
EXTT18=
EXTT19=
PLAYORDER=
